<?xml version="1.0" encoding="UTF-8"?><svg id="Layer_1" xmlns="http://www.w3.org/2000/svg" width="1000" height="1000" viewBox="0 0 1000 1000"><defs><style>.cls-1{fill:#fff;}.cls-2{fill:#00894e;}</style></defs><rect class="cls-2" width="1000" height="1000"/><path class="cls-1" d="M889.47,516.69h-67.63l-51.84,57.33v-135.25h-52.18v248.54h52.18v-41.88l16.82-18.2,40.16,60.08h63.86l-67.97-98.87,66.6-71.74ZM593.55,511.54c-50.81,0-90.63,37.41-90.63,90.28s39.82,90.62,90.63,90.62,90.63-37.76,90.63-90.62-39.48-90.28-90.63-90.28M593.55,644.39c-19.57,0-38.45-14.08-38.45-42.57s18.88-42.23,38.45-42.23,38.45,13.39,38.45,42.23-18.53,42.57-38.45,42.57M391.01,511.54c-50.81,0-90.62,37.41-90.62,90.28s39.82,90.62,90.62,90.62,90.63-37.76,90.63-90.62-39.48-90.28-90.63-90.28M391.01,644.39c-19.56,0-38.45-14.08-38.45-42.57s18.89-42.23,38.45-42.23,38.45,13.39,38.45,42.23-18.53,42.57-38.45,42.57M200.49,559.6c20.25,0,30.55,12.36,34.33,25.41l46.68-14.08c-7.55-30.55-35.02-59.39-82.04-59.39-50.12,0-89.95,37.41-89.95,90.62s40.85,90.28,91.66,90.28c45.66,0,73.81-29.52,81.36-59.39l-46-14.08c-3.78,12.7-15.11,25.41-35.36,25.41-21.62,0-39.82-15.11-39.82-42.23s17.5-42.57,39.13-42.57"/><path class="cls-1" d="M527.3,422.07c-4.8,13.4-15.45,22.32-34.32,22.32-20.25,0-37.77-13.73-38.79-32.96h118.78c.35-1.03,1.03-8.92,1.03-16.14,0-54.92-32.61-87.53-85.48-87.53-44.29,0-85.14,35.02-85.14,89.94s41.88,90.97,88.91,90.97c43.26,0,70.38-24.72,78.62-54.24l-43.6-12.36ZM455.21,377.79c1.03-12.7,12.01-28.84,33.99-28.84,24.72,0,33.64,15.79,34.33,28.84h-68.32ZM225.89,312.91l-33.64,100.93-28.5-100.93h-54.24l53.56,170.62h52.86l36.39-110.19,37.07,110.19h51.84l52.86-170.62h-51.15l-28.49,101.27-33.3-101.27h-55.27Z"/></svg>